<svg xmlns="http://www.w3.org/2000/svg" viewBox="0 0 640 360" width="640" height="360" role="img" aria-label="Black Hat USA 2026 Arsenal">
  <rect width="640" height="360" fill="#181a22"/>
  <g fill="#29d3ff" opacity="0.35"><rect x="24" y="290" width="14" height="10" rx="2"/><rect x="49" y="253" width="14" height="47" rx="2"/><rect x="74" y="240" width="14" height="60" rx="2"/><rect x="99" y="249" width="14" height="51" rx="2"/><rect x="124" y="254" width="14" height="46" rx="2"/><rect x="149" y="222" width="14" height="78" rx="2"/><rect x="174" y="238" width="14" height="62" rx="2"/><rect x="199" y="241" width="14" height="59" rx="2"/><rect x="224" y="259" width="14" height="41" rx="2"/><rect x="249" y="223" width="14" height="77" rx="2"/><rect x="274" y="270" width="14" height="30" rx="2"/><rect x="299" y="257" width="14" height="43" rx="2"/><rect x="324" y="234" width="14" height="66" rx="2"/><rect x="349" y="279" width="14" height="21" rx="2"/><rect x="374" y="253" width="14" height="47" rx="2"/><rect x="399" y="260" width="14" height="40" rx="2"/><rect x="424" y="250" width="14" height="50" rx="2"/><rect x="449" y="284" width="14" height="16" rx="2"/><rect x="474" y="236" width="14" height="64" rx="2"/><rect x="499" y="245" width="14" height="55" rx="2"/><rect x="524" y="284" width="14" height="16" rx="2"/><rect x="549" y="283" width="14" height="17" rx="2"/><rect x="574" y="222" width="14" height="78" rx="2"/><rect x="599" y="256" width="14" height="44" rx="2"/></g>
  <text x="32" y="80" font-family="'JetBrains Mono', ui-monospace, Menlo, monospace" font-size="18" fill="#9aa0b5">// 2026 - speaker</text>
  <text x="32" y="130" font-family="'JetBrains Mono', ui-monospace, Menlo, monospace" font-size="34" font-weight="700" fill="#e8e8ee">Black Hat USA 2026 Arsenal</text>
</svg>
