<svg xmlns="http://www.w3.org/2000/svg" viewBox="0 0 640 360" width="640" height="360" role="img" aria-label="Pwn3d! Con 2026">
  <rect width="640" height="360" fill="#181a22"/>
  <g fill="#29d3ff" opacity="0.35"><rect x="24" y="280" width="14" height="20" rx="2"/><rect x="49" y="283" width="14" height="17" rx="2"/><rect x="74" y="236" width="14" height="64" rx="2"/><rect x="99" y="264" width="14" height="36" rx="2"/><rect x="124" y="224" width="14" height="76" rx="2"/><rect x="149" y="255" width="14" height="45" rx="2"/><rect x="174" y="227" width="14" height="73" rx="2"/><rect x="199" y="284" width="14" height="16" rx="2"/><rect x="224" y="281" width="14" height="19" rx="2"/><rect x="249" y="243" width="14" height="57" rx="2"/><rect x="274" y="270" width="14" height="30" rx="2"/><rect x="299" y="238" width="14" height="62" rx="2"/><rect x="324" y="255" width="14" height="45" rx="2"/><rect x="349" y="274" width="14" height="26" rx="2"/><rect x="374" y="266" width="14" height="34" rx="2"/><rect x="399" y="247" width="14" height="53" rx="2"/><rect x="424" y="237" width="14" height="63" rx="2"/><rect x="449" y="225" width="14" height="75" rx="2"/><rect x="474" y="224" width="14" height="76" rx="2"/><rect x="499" y="290" width="14" height="10" rx="2"/><rect x="524" y="233" width="14" height="67" rx="2"/><rect x="549" y="248" width="14" height="52" rx="2"/><rect x="574" y="264" width="14" height="36" rx="2"/><rect x="599" y="247" width="14" height="53" rx="2"/></g>
  <text x="32" y="80" font-family="'JetBrains Mono', ui-monospace, Menlo, monospace" font-size="18" fill="#9aa0b5">// 2026 - trainer</text>
  <text x="32" y="130" font-family="'JetBrains Mono', ui-monospace, Menlo, monospace" font-size="34" font-weight="700" fill="#e8e8ee">Pwn3d! Con 2026</text>
</svg>
