<svg xmlns="http://www.w3.org/2000/svg" viewBox="0 0 640 360" width="640" height="360" role="img" aria-label="RAKwireless RAKStars">
  <rect width="640" height="360" fill="#181a22"/>
  <g fill="#29d3ff" opacity="0.35"><rect x="24" y="288" width="14" height="12" rx="2"/><rect x="49" y="252" width="14" height="48" rx="2"/><rect x="74" y="286" width="14" height="14" rx="2"/><rect x="99" y="249" width="14" height="51" rx="2"/><rect x="124" y="226" width="14" height="74" rx="2"/><rect x="149" y="245" width="14" height="55" rx="2"/><rect x="174" y="268" width="14" height="32" rx="2"/><rect x="199" y="241" width="14" height="59" rx="2"/><rect x="224" y="228" width="14" height="72" rx="2"/><rect x="249" y="279" width="14" height="21" rx="2"/><rect x="274" y="289" width="14" height="11" rx="2"/><rect x="299" y="233" width="14" height="67" rx="2"/><rect x="324" y="288" width="14" height="12" rx="2"/><rect x="349" y="259" width="14" height="41" rx="2"/><rect x="374" y="290" width="14" height="10" rx="2"/><rect x="399" y="260" width="14" height="40" rx="2"/><rect x="424" y="254" width="14" height="46" rx="2"/><rect x="449" y="268" width="14" height="32" rx="2"/><rect x="474" y="247" width="14" height="53" rx="2"/><rect x="499" y="273" width="14" height="27" rx="2"/><rect x="524" y="270" width="14" height="30" rx="2"/><rect x="549" y="258" width="14" height="42" rx="2"/><rect x="574" y="252" width="14" height="48" rx="2"/><rect x="599" y="279" width="14" height="21" rx="2"/></g>
  <text x="32" y="80" font-family="'JetBrains Mono', ui-monospace, Menlo, monospace" font-size="18" fill="#9aa0b5">// 2020 - guest</text>
  <text x="32" y="130" font-family="'JetBrains Mono', ui-monospace, Menlo, monospace" font-size="34" font-weight="700" fill="#e8e8ee">RAKwireless RAKStars</text>
</svg>
